<svg width="20" height="20" viewBox="0 0 20 20" fill="none" xmlns="http://www.w3.org/2000/svg">
<path d="M2.88906 1.01562C1.51417 1.01562 0.615234 1.91845 0.615234 3.10509C0.615234 4.26552 1.48739 5.19409 2.8363 5.19409H2.8624C4.26418 5.19409 5.13657 4.26552 5.13657 3.10509C5.11036 1.91845 4.26418 1.01562 2.88906 1.01562Z" fill="currentColor"/>
<path d="M0.853027 6.84375H4.87242V18.9363H0.853027V6.84375Z" fill="currentColor"/>
<path d="M14.738 6.5625C12.5697 6.5625 11.1157 8.60001 11.1157 8.60001V6.84631H7.09619V18.9388H11.1155V12.1859C11.1155 11.8244 11.1417 11.4634 11.2479 11.2049C11.5384 10.483 12.1997 9.73515 13.3101 9.73515C14.7645 9.73515 15.3462 10.8441 15.3462 12.4697V18.9388H19.3653V12.0052C19.3653 8.2909 17.3823 6.5625 14.738 6.5625Z" fill="currentColor"/>
</svg>
