<svg width="103" height="44" viewBox="0 0 103 44" fill="none" xmlns="http://www.w3.org/2000/svg">
<path d="M20.5372 43V34.68H0.569248V29.688L17.5292 1.016L23.6092 4.472L9.33725 28.28H20.5372V18.808H27.6412V28.28H32.7612V34.68H27.6412V43H20.5372ZM42.8858 22.264C42.8858 26.744 43.6538 30.392 45.1898 33.144C46.7258 35.896 48.8378 37.24 51.5258 37.24C54.2138 37.24 56.2618 35.896 57.7978 33.144C59.3338 30.392 60.1018 26.744 60.1018 22.264C60.1018 17.784 59.3338 14.2 57.7978 11.448C56.2618 8.696 54.2138 7.288 51.5258 7.288C48.8378 7.288 46.7258 8.696 45.1898 11.448C43.6538 14.2 42.8858 17.784 42.8858 22.264ZM35.3338 22.264C35.3338 15.992 36.8058 10.872 39.8138 6.904C42.8218 2.936 46.7258 0.887997 51.5258 0.887997C56.2618 0.887997 60.1018 2.936 63.1098 6.904C66.1178 10.872 67.6538 15.992 67.6538 22.264C67.6538 28.536 66.1178 33.72 63.1098 37.688C60.1018 41.656 56.2618 43.64 51.5258 43.64C46.7258 43.64 42.8218 41.656 39.8138 37.688C36.8058 33.72 35.3338 28.536 35.3338 22.264ZM90.3223 43V34.68H70.3543V29.688L87.3143 1.016L93.3943 4.472L79.1223 28.28H90.3223V18.808H97.4263V28.28H102.546V34.68H97.4263V43H90.3223Z" fill="white"/>
</svg>
