<svg width="59" height="46" viewBox="0 0 59 46" fill="none" xmlns="http://www.w3.org/2000/svg">
<g clip-path="url(#clip0_794_7235)">
<path d="M0 22.9979C0 17.7807 4.0569 13.6295 9.45697 13.6295C11.7743 13.6034 14.0183 14.4434 15.7515 15.9857L14.4083 17.5367C13.0393 16.3014 11.4147 15.6853 9.45697 15.6853C5.40007 15.6853 2.32279 18.9672 2.32279 23.0055C2.32279 27.0438 5.40007 30.3257 9.45697 30.3257C10.5569 30.3277 11.6418 30.0697 12.6237 29.5726C13.6055 29.0755 14.4567 28.3533 15.108 27.4647V23.6369H11.1637V21.7305H17.2909V28.2654C15.6176 30.7909 12.7579 32.3617 9.45697 32.3617C4.0569 32.3678 0 28.212 0 22.9979Z" fill="#030712"/>
<path d="M21.3477 13.9121H23.3343L27.7547 20.0824C28.707 21.4291 30.6936 24.2901 30.6936 24.2901C30.6936 24.2901 32.6802 21.458 33.6309 20.1114L38.0514 13.9121H40.038V32.0891H37.7989V17.6988C37.3905 18.4152 36.9426 19.1081 36.4572 19.7744L30.6936 27.909L24.9011 19.718C24.0903 18.5681 23.5868 17.6988 23.5868 17.6988V32.0891H21.3477V13.9121Z" fill="#030712"/>
<path d="M44.2656 13.9102H51.7071C56.7162 13.9102 59.4573 16.9603 59.4573 20.7271C59.4573 24.494 56.7193 27.5426 51.6797 27.5426H46.5078V32.0872H44.2656V13.9102ZM51.9033 25.5783C55.0977 25.5783 57.1345 23.3914 57.1345 20.7271C57.1345 18.0629 55.0932 15.8744 51.9307 15.8744H46.4987V25.5783H51.9033Z" fill="#030712"/>
<path d="M10.4828 12.3113C12.3859 8.86682 15.1741 5.99595 18.5579 3.99693C21.9417 1.9979 25.7977 0.943639 29.7253 0.943639C33.6529 0.943639 37.5088 1.9979 40.8926 3.99693C44.2764 5.99595 47.0647 8.86682 48.9678 12.3113H50.0326C48.0892 8.59797 45.1699 5.48817 41.5905 3.31851C38.0111 1.14885 33.908 0.00195312 29.7253 0.00195312C25.5425 0.00195313 21.4394 1.14885 17.8601 3.31851C14.2807 5.48817 11.3613 8.59797 9.41797 12.3113H10.4828Z" fill="#030712"/>
<path d="M50.566 30.089C47.6134 38.7818 39.3871 45.0634 29.7263 45.0634C25.7715 45.0604 21.8905 43.99 18.4908 41.9646C15.091 39.9391 12.2979 37.0334 10.4046 33.5524H9.33984C11.274 37.3001 14.198 40.443 17.7926 42.6378C21.3873 44.8327 25.5144 45.9951 29.7232 45.9983C39.9149 45.9983 48.5596 39.3109 51.5486 30.0859L50.566 30.089Z" fill="#030712"/>
</g>
<defs>
<clipPath id="clip0_794_7235">
<rect width="59" height="46" fill="white"/>
</clipPath>
</defs>
</svg>
