<svg width="255" height="52" viewBox="0 0 255 52" fill="none" xmlns="http://www.w3.org/2000/svg">
<path d="M0 25.9992C0 20.1015 4.59782 15.4089 10.7179 15.4089C13.3442 15.3794 15.8874 16.3289 17.8517 18.0724L16.3294 19.8257C14.7778 18.4293 12.9366 17.7328 10.7179 17.7328C6.12008 17.7328 2.6325 21.4428 2.6325 26.0078C2.6325 30.5729 6.12008 34.2829 10.7179 34.2829C11.9645 34.2851 13.1941 33.9934 14.3068 33.4315C15.4196 32.8696 16.3842 32.0532 17.1224 31.0487V26.7215H12.6522V24.5666H19.5963V31.9538C17.7 34.8087 14.4589 36.5844 10.7179 36.5844C4.59782 36.5912 0 31.8934 0 25.9992Z" fill="white"/>
<path d="M24.1934 15.7266H26.4449L31.4547 22.7017C32.5339 24.224 34.7854 27.4582 34.7854 27.4582C34.7854 27.4582 37.0369 24.2567 38.1144 22.7345L43.1242 15.7266H45.3757V36.2745H42.8381V20.0072C42.3753 20.817 41.8677 21.6003 41.3175 22.3535L34.7854 31.5491L28.2205 22.2897C27.3017 20.9898 26.731 20.0072 26.731 20.0072V36.2745H24.1934V15.7266Z" fill="white"/>
<path d="M50.168 15.7266H58.6016C64.2786 15.7266 67.3852 19.1745 67.3852 23.4327C67.3852 27.6909 64.2821 31.1371 58.5706 31.1371H52.7091V36.2745H50.168V15.7266ZM58.824 28.9166C62.4443 28.9166 64.7527 26.4445 64.7527 23.4327C64.7527 20.4209 62.4392 17.947 58.855 17.947H52.6988V28.9166H58.824Z" fill="white"/>
<path d="M11.8787 13.9169C14.0355 10.0231 17.1955 6.77777 21.0305 4.51801C24.8655 2.25824 29.2356 1.06647 33.6868 1.06647C38.1381 1.06647 42.5082 2.25824 46.3432 4.51801C50.1781 6.77777 53.3382 10.0231 55.495 13.9169H56.7018C54.4993 9.71919 51.1907 6.20376 47.1341 3.7511C43.0774 1.29844 38.4273 0.00195312 33.6868 0.00195312C28.9464 0.00195313 24.2962 1.29844 20.2396 3.7511C16.1829 6.20376 12.8744 9.71919 10.6719 13.9169H11.8787Z" fill="white"/>
<path d="M57.3089 34.0113C53.9627 43.8379 44.6394 50.9389 33.6905 50.9389C29.2085 50.9355 24.8101 49.7255 20.957 47.4358C17.1039 45.1462 13.9384 41.8614 11.7927 37.9264H10.5859C12.7779 42.1629 16.0918 45.7157 20.1658 48.1969C24.2397 50.678 28.9171 51.9921 33.6871 51.9957C45.2377 51.9957 55.035 44.4361 58.4226 34.0078L57.3089 34.0113Z" fill="white"/>
</svg>
