<svg width="512" height="512" viewBox="0 0 512 512" fill="none" xmlns="http://www.w3.org/2000/svg">
<g clip-path="url(#clip0_925_7569)">
<rect width="512" height="512" rx="80" fill="#4F46E5"/>
<g clip-path="url(#clip1_925_7569)">
<path d="M142.075 255.998C142.075 185.894 196.729 130.113 269.477 130.113C300.695 129.763 330.925 141.05 354.274 161.774L336.18 182.615C317.736 166.016 295.85 157.737 269.477 157.737C214.823 157.737 173.367 201.837 173.367 256.101C173.367 310.365 214.823 354.465 269.477 354.465C284.295 354.491 298.91 351.024 312.138 344.345C325.365 337.665 336.831 327.961 345.606 316.021V264.585H292.469V238.969H375.013V326.779C352.471 360.715 313.945 381.822 269.477 381.822C196.729 381.904 142.075 326.062 142.075 255.998Z" fill="white"/>
<path d="M-2.07034 142.229C23.5675 95.9436 61.13 57.367 106.716 30.5056C152.301 3.64428 204.248 -10.5221 257.159 -10.5221C310.07 -10.5221 362.016 3.64428 407.602 30.5056C453.188 57.367 490.75 95.9436 516.388 142.229H530.733C504.552 92.331 465.224 50.5439 417.004 21.3896C368.783 -7.76471 313.508 -23.1758 257.159 -23.1758C200.81 -23.1758 145.535 -7.76471 97.3142 21.3896C49.0939 50.5439 9.76534 92.331 -16.415 142.229H-2.07034Z" fill="white"/>
<path d="M538.011 321.373C498.235 438.18 387.412 522.588 257.265 522.588C203.988 522.548 151.704 508.165 105.904 480.948C60.1031 453.732 22.4749 414.686 -3.03029 367.911H-17.375C8.68082 418.27 48.0725 460.502 96.4985 489.995C144.925 519.488 200.523 535.108 257.224 535.15C394.523 535.15 510.981 445.291 551.249 321.332L538.011 321.373Z" fill="white"/>
</g>
</g>
<defs>
<clipPath id="clip0_925_7569">
<rect width="512" height="512" rx="80" fill="white"/>
</clipPath>
<clipPath id="clip1_925_7569">
<rect width="630" height="618.113" fill="white" transform="translate(-60 -53.0547)"/>
</clipPath>
</defs>
</svg>
